Coordinates
version=1
nRows=54
nColumns=12
inDegrees=yes

Units are S.I. units (second, meters, Newtons, ...)
Angles are in degrees

endheader
time	SC_y	SC_z	SC_x	AC_y	AC_z	AC_x	GH_y	GH_z	GH_yy	EL_x	PS_y
       0.0              -19.32          17.82          51.22           55.2         -10.32          -11.4         -7.197          -5.47          77.65          51.64          120.7
  0.001161              -19.33          17.81          51.21           55.2         -10.32         -11.39         -7.178         -5.462          77.62          51.64          120.7
  0.002321              -19.33          17.81          51.21           55.2         -10.32         -11.39         -7.157         -5.453          77.59          51.64          120.7
  0.003482              -19.34          17.81          51.21           55.2         -10.32         -11.39         -7.136         -5.444          77.56          51.64          120.7
  0.004643              -19.34          17.81          51.21          55.19         -10.33         -11.38         -7.113         -5.434          77.52          51.64          120.6
  0.005803              -19.35           17.8          51.21          55.19         -10.33         -11.38         -7.089         -5.423          77.48          51.64          120.6
  0.006964              -19.35           17.8          51.21          55.19         -10.33         -11.37         -7.063         -5.412          77.44          51.64          120.6
  0.008125              -19.36           17.8          51.21          55.18         -10.33         -11.37         -7.035           -5.4          77.39          51.64          120.6
  0.009285              -19.37          17.79          51.21          55.18         -10.33         -11.37         -7.005         -5.387          77.35          51.64          120.6
   0.01045              -19.37          17.79          51.21          55.17         -10.33         -11.36         -6.973         -5.373           77.3          51.64          120.6
   0.01161              -19.38          17.78          51.21          55.17         -10.33         -11.35         -6.939         -5.358          77.24          51.64          120.5
   0.01277              -19.39          17.78          51.21          55.16         -10.33         -11.35         -6.902         -5.342          77.18          51.64          120.5
   0.01393               -19.4          17.77          51.21          55.16         -10.33         -11.34         -6.862         -5.325          77.12          51.65          120.5
   0.01509              -19.41          17.77          51.21          55.15         -10.33         -11.33         -6.819         -5.306          77.05          51.65          120.5
   0.01625              -19.42          17.76          51.21          55.15         -10.33         -11.33         -6.773         -5.286          76.97          51.65          120.4
   0.01741              -19.43          17.75          51.21          55.14         -10.33         -11.32         -6.723         -5.264          76.89          51.65          120.4
   0.01857              -19.45          17.75          51.21          55.13         -10.33         -11.31         -6.668          -5.24           76.8          51.65          120.4
   0.01973              -19.46          17.74           51.2          55.13         -10.33          -11.3         -6.608         -5.214          76.71          51.65          120.3
   0.02089              -19.48          17.73           51.2          55.12         -10.33         -11.29         -6.543         -5.186           76.6          51.66          120.3
   0.02205              -19.49          17.72           51.2          55.11         -10.34         -11.28         -6.472         -5.155          76.49          51.66          120.3
   0.02321              -19.51          17.71           51.2           55.1         -10.34         -11.27         -6.393          -5.12          76.36          51.66          120.2
   0.02437              -19.53           17.7           51.2          55.09         -10.34         -11.25         -6.307         -5.083          76.22          51.66          120.2
   0.02553              -19.56          17.69           51.2          55.07         -10.34         -11.24         -6.212         -5.041          76.07          51.67          120.1
    0.0267              -19.58          17.67          51.19          55.06         -10.34         -11.22         -6.106         -4.996           75.9          51.67          120.0
   0.02786              -19.61          17.66          51.19          55.04         -10.34          -11.2         -5.989         -4.945          75.71          51.67          120.0
   0.02902              -19.64          17.64          51.19          55.03         -10.35         -11.18         -5.858         -4.888           75.5          51.68          119.9
   0.03018              -19.67          17.62          51.19          55.01         -10.35         -11.15         -5.711         -4.824          75.27          51.68          119.8
   0.03134              -19.71           17.6          51.18          54.99         -10.35         -11.13         -5.546         -4.752           75.0          51.69          119.7
    0.0325              -19.76          17.58          51.18          54.96         -10.35          -11.1          -5.36         -4.671           74.7          51.69          119.6
   0.03366              -19.81          17.55          51.18          54.93         -10.36         -11.06         -5.148         -4.579          74.36           51.7          119.4
   0.03482              -19.87          17.52          51.17           54.9         -10.36         -11.02         -4.907         -4.474          73.98          51.71          119.3
   0.03598              -19.93          17.48          51.17          54.87         -10.36         -10.98         -4.629         -4.353          73.53          51.71          119.1
   0.03714              -20.01          17.44          51.16          54.82         -10.37         -10.92         -4.309         -4.214          73.02          51.72          118.9
    0.0383               -20.1          17.39          51.15          54.77         -10.38         -10.86         -3.937         -4.052          72.42          51.74          118.7
   0.03946               -20.2          17.33          51.15          54.72         -10.38         -10.79         -3.502         -3.862          71.72          51.75          118.4
   0.04062              -20.32          17.26          51.14          54.65         -10.39         -10.71         -2.989         -3.639           70.9          51.77          118.1
   0.04178              -20.47          17.18          51.13          54.57          -10.4         -10.61          -2.38         -3.374          69.92          51.78          117.8
   0.04294              -20.64          17.09          51.11          54.47         -10.41         -10.49         -1.649         -3.056          68.74          51.81          117.3
   0.04411              -20.85          16.97           51.1          54.36         -10.43         -10.35        -0.7647         -2.671          67.32          51.83          116.8
   0.04527               -21.1          16.83          51.08          54.22         -10.44         -10.17         0.3153         -2.201          65.59          51.87          116.1
   0.04643              -21.42          16.66          51.05          54.04         -10.46         -9.951          1.648         -1.621          63.45          51.91          115.3
   0.04759              -21.82          16.44          51.02          53.82         -10.49          -9.68           3.31        -0.8973          60.78          51.96          114.3
   0.04875              -22.31          16.16          50.98          53.55         -10.52         -9.338          5.404        0.01399          57.41          52.03          113.0
   0.04991              -22.94          15.81          50.93           53.2         -10.56         -8.903          8.066          1.172          53.14          52.11          111.4
   0.05107              -23.75          15.37          50.87          52.75         -10.62         -8.346          11.47          2.655          47.67          52.21          109.3
   0.05223              -24.79          14.79          50.79          52.17         -10.69         -7.632          15.85          4.558          40.64          52.35          106.6
   0.05339              -26.12          14.06          50.69          51.44         -10.77          -6.72          21.43          6.989          31.67          52.52          103.2
   0.05455              -27.78          13.14          50.56          50.52         -10.89         -5.573          28.45          10.04           20.4          52.74           98.9
   0.05571              -29.81          12.01           50.4          49.39         -11.02         -4.175          37.01          13.77          6.651          53.01          93.66
   0.05687              -32.17          10.71          50.21          48.09         -11.18         -2.554          46.93          18.09         -9.281          53.31          87.59
   0.05803              -34.71          9.301          50.01          46.68         -11.35           -0.8          57.67          22.76         -26.53          53.65          81.02
   0.05919              -37.26          7.891          49.82          45.27         -11.51         0.9546          68.41          27.43         -43.78          53.98          74.46
   0.06036              -39.62          6.588          49.63          43.96         -11.67          2.575          78.33          31.75         -59.71          54.29          68.39
   0.06152              -41.65          5.465          49.47          42.84         -11.81          3.973          86.89          35.48         -73.46          54.55          63.15
